<?xml version="1.0" standalone="no"?>
<!DOCTYPE svg PUBLIC "-//W3C//DTD SVG 20010904//EN"
 "http://www.w3.org/TR/2001/REC-SVG-20010904/DTD/svg10.dtd">
<svg version="1.0" xmlns="http://www.w3.org/2000/svg"
 width="700.000000pt" height="700.000000pt" viewBox="0 0 700.000000 700.000000"
 preserveAspectRatio="xMidYMid meet">
<metadata>
Created by potrace 1.14, written by Peter Selinger 2001-2017
</metadata>
<g transform="translate(0.000000,700.000000) scale(0.100000,-0.100000)"
fill="#000000" stroke="none">
<path d="M2920 6741 c0 -6 30 -53 66 -104 164 -227 205 -445 143 -746 -41
-203 -162 -484 -319 -746 -70 -116 -466 -713 -731 -1100 -314 -459 -499 -771
-639 -1079 -61 -134 -131 -347 -159 -482 -22 -102 -41 -303 -36 -365 2 -19 6
-65 10 -104 7 -83 44 -235 79 -329 116 -307 409 -637 806 -905 229 -155 389
-241 645 -346 195 -79 254 -98 315 -99 93 -2 85 16 -100 210 -408 425 -580
769 -580 1156 -1 378 150 694 624 1308 666 863 932 1303 1023 1690 12 53 17
117 17 220 0 207 -28 317 -134 535 -131 267 -372 586 -805 1060 -193 212 -225
244 -225 226z"/>
<path d="M4373 4685 c3 -11 19 -59 36 -107 65 -186 63 -374 -6 -593 -86 -273
-253 -537 -640 -1017 -163 -203 -515 -670 -579 -770 -60 -92 -109 -193 -141
-285 -22 -67 -26 -96 -27 -203 -1 -134 14 -202 70 -312 51 -101 177 -273 235
-322 64 -54 145 -90 124 -56 -14 23 -35 184 -35 271 0 156 26 260 102 414 80
161 247 367 635 787 253 274 463 625 554 927 42 142 54 256 39 398 -27 270
-120 537 -255 737 -65 96 -120 161 -112 131z"/>
<path d="M5020 3883 c0 -6 21 -59 46 -119 56 -134 74 -212 74 -330 0 -312
-127 -720 -318 -1018 -82 -129 -170 -228 -475 -536 -362 -365 -477 -509 -560
-702 -68 -159 -106 -374 -93 -528 10 -116 29 -250 36 -250 4 0 16 19 26 42 60
133 176 289 315 424 105 101 171 153 434 344 300 218 423 320 565 466 221 227
355 453 430 724 83 303 60 619 -62 865 -112 223 -418 676 -418 618z"/>
</g>
</svg>
