<svg width="33" height="22" viewBox="0 0 33 22" fill="none" xmlns="http://www.w3.org/2000/svg">
    <path d="M24.8497 9.56621H12.4454C12.3509 9.56621 12.3139 9.55019 12.3139 9.50532C12.3139 9.38995 12.3139 8.57273 12.3139 8.40288C12.3139 8.32917 12.3139 8.30994 12.5153 8.30994H27.0897C27.3034 8.30994 27.3363 8.3484 27.3363 8.40609C27.3363 8.69772 27.3363 9.30342 27.3363 9.44123C27.3363 9.52134 27.3363 9.56621 27.1061 9.56621H25.6265H24.8497ZM12.507 15.181C12.3139 15.181 12.3139 15.1393 12.3139 15.0367C12.3139 14.8733 12.3139 14.1715 12.3139 14.0112C12.3139 13.9535 12.3139 13.9247 12.5317 13.9247H27.0938C27.3322 13.9247 27.3322 13.9792 27.3322 14.0625C27.3322 14.2355 27.3322 14.9021 27.3322 15.0175C27.3322 15.1425 27.2952 15.181 27.1431 15.181H12.507ZM33 2.59586C33 2.33627 32.6794 2.35229 32.6794 2.35229C32.6794 2.35229 16.3048 2.36191 17.0528 2.35229C16.5349 2.36191 16.424 2.1536 16.424 2.1536C16.424 2.1536 15.1005 0.689023 14.71 0.205104C14.5374 0.0672998 14.2333 0 14.2333 0H0.324698C0.0739816 0 0 0.253176 0 0.253176V21.4879C0 21.7699 0.230165 21.7924 0.230165 21.7924L32.8233 21.7956C32.9877 21.7956 33 21.693 33 21.693V2.59586ZM31.3888 20.3182C31.3888 20.44 31.2655 20.5361 31.1094 20.5361H2.06738C1.75912 20.5361 1.61116 20.2573 1.61116 19.9753L1.60705 1.45817C1.60705 1.40369 1.60705 1.24986 1.80433 1.24986C1.97285 1.24986 12.8276 1.24986 13.2099 1.24986C13.5222 1.24986 13.4935 1.29793 13.6373 1.45176C14.11 1.94849 15.0594 2.93556 15.5033 3.365C15.7211 3.57651 15.8855 3.58292 16.1897 3.59895L31.0929 3.60856C31.2614 3.60856 31.3888 3.75277 31.3888 3.90981V20.3182Z" fill="#222436"/>
</svg>
